<?xml version="1.0" standalone="no"?>
<!DOCTYPE svg PUBLIC "-//W3C//DTD SVG 20010904//EN"
 "http://www.w3.org/TR/2001/REC-SVG-20010904/DTD/svg10.dtd">
<svg version="1.0" xmlns="http://www.w3.org/2000/svg"
 width="1280.000000pt" height="853.000000pt" viewBox="0 0 1280.000000 853.000000"
 preserveAspectRatio="xMidYMid meet">

<g transform="translate(0.000000,853.000000) scale(0.100000,-0.100000)"
fill="#000000" stroke="none">
<path d="M6170 7270 c-69 -4 -168 -15 -220 -24 -224 -39 -535 -135 -720 -223
-150 -71 -397 -223 -485 -299 -16 -14 -43 -37 -60 -51 -296 -256 -542 -589
-665 -898 -17 -44 -36 -91 -41 -104 -8 -20 -14 -22 -46 -16 -20 3 -45 12 -57
20 -44 28 -163 56 -261 62 -140 8 -235 -7 -584 -93 -352 -87 -486 -104 -836
-104 -350 0 -467 28 -760 179 -98 51 -157 55 -204 16 -86 -73 -66 -220 60
-435 56 -94 74 -139 88 -217 18 -98 116 -291 219 -433 30 -41 120 -140 201
-219 126 -124 145 -147 143 -171 -2 -16 6 -46 17 -68 27 -52 138 -165 232
-234 43 -31 81 -63 85 -70 15 -22 35 -81 44 -123 11 -58 17 -69 53 -96 85 -63
368 -245 412 -265 62 -28 235 -61 383 -73 62 -5 119 -14 126 -20 50 -42 245
-65 407 -49 l117 12 83 -32 c46 -17 119 -38 162 -46 110 -20 127 -40 27 -33
-41 4 -91 9 -111 13 -74 13 -98 -54 -64 -182 8 -31 24 -76 35 -99 24 -50 25
-88 4 -146 -8 -24 -22 -66 -29 -94 -22 -76 -75 -258 -81 -276 -8 -23 23 -31
156 -38 l115 -6 18 -38 c36 -76 186 -212 418 -377 336 -239 632 -377 1039
-483 211 -55 252 -63 451 -82 274 -27 687 -13 889 29 133 28 372 95 490 139
311 113 682 333 979 579 123 100 161 149 161 203 0 14 1 25 3 26 1 0 65 4 142
9 77 4 148 11 158 15 9 4 17 18 17 31 0 56 -65 259 -127 394 -22 48 -24 59
-13 85 103 253 98 313 -23 316 l-42 1 45 8 c25 4 90 24 144 45 l99 37 111 -11
c140 -15 270 -1 371 39 62 24 88 28 215 33 224 8 298 34 565 200 236 147 261
173 274 287 l6 55 80 53 c103 69 246 205 275 261 14 28 20 56 18 77 -4 30 1
38 41 71 54 46 185 176 224 224 119 143 234 358 296 557 25 79 58 159 81 196
101 165 130 278 95 362 -39 93 -105 107 -224 45 -78 -39 -228 -99 -336 -132
-118 -36 -252 -51 -445 -51 -287 1 -494 23 -701 75 -639 162 -722 168 -1007
71 -74 -25 -139 -43 -146 -41 -7 3 -21 27 -30 54 -53 141 -240 466 -340 588
-199 244 -390 419 -621 570 -481 313 -1012 452 -1595 415z m481 -310 c85 -12
188 -30 229 -41 142 -38 295 -92 345 -120 28 -16 84 -46 125 -67 41 -22 113
-60 159 -86 46 -25 86 -46 89 -46 10 0 116 -74 187 -131 97 -78 270 -260 352
-371 37 -51 78 -106 90 -123 12 -16 37 -55 54 -85 18 -30 53 -89 77 -130 97
-162 165 -361 234 -683 19 -90 22 -132 22 -352 -1 -229 -3 -261 -26 -375 -71
-344 -162 -587 -316 -840 -166 -275 -258 -385 -472 -564 -47 -39 -88 -75 -92
-81 -4 -5 -9 -7 -12 -4 -3 3 40 47 96 99 426 397 721 985 767 1533 73 856
-283 1612 -978 2077 -54 36 -111 72 -127 80 -16 8 -45 24 -64 35 -19 12 -60
32 -90 44 -30 13 -75 32 -100 43 -75 32 -82 35 -165 61 -111 36 -292 75 -405
87 -118 13 -431 14 -566 1 -182 -18 -458 -96 -639 -180 -107 -50 -194 -95
-235 -121 -25 -16 -61 -38 -81 -49 -19 -11 -41 -27 -48 -35 -8 -9 -19 -16 -25
-16 -7 0 -23 -11 -36 -25 -13 -14 -28 -25 -33 -25 -11 0 -43 -27 -169 -143
-339 -308 -580 -781 -654 -1282 -24 -166 -29 -430 -10 -568 18 -129 60 -301
108 -442 92 -275 308 -641 522 -884 108 -124 258 -266 352 -333 25 -18 41 -34
35 -36 -6 -2 -17 2 -25 10 -8 7 -31 24 -51 38 -131 92 -271 210 -309 263 -16
21 -50 62 -77 91 -27 30 -57 64 -67 77 -20 25 -160 232 -177 260 -5 9 -35 59
-66 110 -53 89 -90 163 -139 274 -11 28 -25 59 -30 70 -26 55 -78 266 -109
445 -54 303 -20 718 84 1026 111 327 282 605 530 863 467 485 1235 743 1936
651z m-86 -155 c160 -20 179 -39 30 -31 -317 18 -354 18 -421 6 -38 -7 -98
-16 -134 -21 -140 -18 -234 -39 -295 -65 -16 -7 -43 -15 -60 -19 -41 -9 -131
-40 -180 -61 -22 -9 -47 -18 -55 -19 -9 -1 -28 -14 -43 -29 -15 -15 -42 -33
-61 -41 -121 -51 -371 -238 -508 -380 -87 -90 -244 -304 -292 -395 -16 -30
-40 -77 -55 -105 -24 -45 -44 -95 -102 -250 -26 -68 -76 -290 -90 -400 -15
-116 -15 -436 1 -544 40 -285 164 -629 312 -864 211 -336 506 -614 833 -787
55 -29 105 -58 110 -65 12 -14 195 -74 330 -109 165 -42 305 -59 485 -59 302
0 562 50 770 147 30 14 65 26 76 26 12 0 27 7 34 15 7 8 16 15 21 15 16 0 252
163 299 206 25 23 68 60 95 81 84 67 286 283 354 380 119 168 244 420 298 598
78 254 106 434 105 680 -1 325 -64 602 -198 882 -35 73 -64 136 -64 140 0 3
-12 22 -27 42 -16 19 -46 63 -68 97 -51 78 -159 205 -280 329 -31 31 -129 116
-176 151 -14 10 -51 38 -81 61 -56 42 -151 96 -293 166 -44 21 -97 47 -118 58
-22 10 -43 19 -49 19 -5 0 -24 6 -41 14 -18 7 -43 18 -57 24 l-25 11 27 0 c15
1 30 -3 33 -9 3 -5 22 -10 41 -10 19 0 43 -4 54 -10 11 -5 29 -14 40 -20 11
-5 24 -10 30 -10 16 0 168 -75 245 -121 102 -61 259 -182 346 -266 41 -40 82
-79 91 -86 9 -6 32 -34 52 -60 47 -63 59 -74 73 -70 24 8 203 -257 286 -423
99 -196 148 -338 189 -544 21 -103 23 -143 23 -385 -1 -257 -2 -277 -29 -403
-98 -470 -283 -811 -625 -1153 -145 -144 -205 -195 -244 -204 -15 -4 -27 -13
-27 -20 0 -8 -8 -16 -18 -19 -10 -4 -28 -15 -39 -26 -32 -29 -120 -83 -188
-114 -33 -16 -76 -36 -95 -46 -123 -62 -343 -131 -513 -160 -214 -36 -594 -21
-802 31 -191 48 -418 146 -604 262 -139 85 -171 109 -281 206 -264 235 -415
430 -555 716 -113 231 -173 441 -211 739 -29 230 -4 548 63 780 63 222 121
355 217 501 40 61 85 133 101 160 125 219 496 528 795 663 190 85 273 115 420
152 226 55 504 73 725 45z m350 -75 c4 -6 -5 -10 -19 -10 -14 0 -26 5 -26 10
0 6 9 10 19 10 11 0 23 -4 26 -10z m-329 -250 c6 -6 79 -12 164 -15 85 -3 158
-9 164 -15 6 -6 1 -28 -13 -62 -35 -81 -35 -88 -1 -25 17 31 36 57 42 57 18 0
148 -52 148 -59 0 -3 21 -7 48 -8 26 -1 65 -8 87 -15 36 -12 40 -17 39 -45 -1
-20 3 -30 10 -28 6 2 40 -6 76 -18 79 -27 87 -48 41 -106 -17 -21 -31 -41 -31
-44 0 -3 25 3 55 14 139 49 265 -6 265 -116 l0 -36 26 20 c15 12 31 21 36 21
14 0 107 -90 113 -111 4 -10 12 -19 19 -19 7 0 38 -18 69 -41 79 -56 77 -70
-26 -141 -45 -32 -144 -107 -221 -168 -76 -60 -143 -107 -150 -104 -51 29
-116 80 -117 93 0 9 -30 31 -72 52 -50 25 -73 42 -75 56 -2 16 -13 22 -43 26
-54 7 -87 31 -108 76 -14 32 -19 36 -33 27 -23 -14 -155 29 -163 54 -4 11 -20
20 -44 24 -22 3 -41 13 -45 22 -3 9 -12 14 -20 11 -27 -11 -150 11 -163 29
-10 14 -23 16 -76 11 -40 -4 -68 -2 -75 5 -6 6 -51 10 -113 9 l-102 -2 6 58
c4 32 10 68 13 81 6 21 4 22 -48 22 -30 0 -83 -3 -116 -6 l-62 -7 -24 -53
c-46 -100 -169 -193 -256 -194 -19 0 -46 -9 -60 -20 -30 -24 -53 -25 -71 -4
-12 14 -14 14 -20 -4 -11 -30 -108 -104 -128 -97 -11 3 -42 -18 -89 -59 -52
-46 -78 -62 -92 -59 -14 4 -20 0 -20 -11 0 -21 -66 -93 -101 -112 -34 -17
-123 -19 -136 -1 -6 6 -18 43 -28 81 -18 65 -18 69 -1 81 9 7 25 11 34 8 22
-5 72 13 72 27 0 6 -36 10 -92 10 -54 0 -103 6 -118 13 -75 38 -94 161 -42
272 31 65 89 124 125 127 38 2 71 -3 84 -14 16 -13 16 -7 3 27 -12 31 -9 33
113 129 61 48 94 67 107 63 11 -3 23 -1 26 5 10 16 133 68 147 62 7 -2 21 -18
31 -34 19 -33 41 -41 32 -12 -20 67 -19 69 26 100 53 36 84 47 94 31 3 -6 12
-35 19 -63 l13 -51 1 46 1 46 63 29 c81 37 180 40 224 8 35 -26 70 -87 78
-136 7 -38 7 -38 53 -38 26 0 84 5 129 11 l81 12 18 86 c25 125 21 121 112
121 43 0 83 -5 88 -10z m59 -771 c165 -19 340 -74 468 -146 33 -18 61 -33 63
-33 11 0 155 -112 150 -117 -2 -3 -17 3 -33 14 -15 10 -50 30 -78 43 -27 13
-61 34 -75 46 -29 26 -133 69 -137 57 -12 -34 -21 -37 -60 -21 -47 20 -142 42
-149 35 -10 -10 7 -47 20 -47 8 0 19 -7 26 -15 7 -8 21 -15 31 -15 36 0 30
-23 -18 -68 -88 -85 -195 -106 -513 -103 -69 0 -147 -3 -175 -8 -27 -5 -88
-17 -135 -25 -116 -22 -238 -61 -305 -99 -31 -18 -69 -38 -83 -46 -15 -7 -36
-21 -47 -31 -20 -18 -45 -19 -78 -5 -11 4 -23 3 -30 -4 -6 -6 -16 -11 -21 -11
-6 0 -3 7 7 15 18 13 18 14 0 23 -10 5 -23 7 -30 5 -7 -2 -13 7 -15 23 -2 15
-9 29 -17 32 -10 3 -11 -2 -6 -19 11 -35 11 -48 0 -48 -5 0 -10 7 -10 17 0 9
-4 27 -8 39 -9 26 -37 39 -37 17 0 -8 -6 -14 -12 -12 -15 3 -98 -42 -98 -53 0
-4 -14 -10 -30 -14 -36 -8 -60 -49 -65 -109 -4 -56 -20 -47 -18 11 3 80 61
181 166 287 104 105 145 135 272 199 276 138 343 159 610 190 71 9 388 6 470
-4z m4885 -51 c15 -17 20 -35 20 -78 0 -95 -64 -194 -174 -269 -78 -54 -248
-138 -356 -176 -111 -39 -155 -65 -110 -65 61 1 172 21 243 44 90 28 87 15 -9
-34 -63 -33 -114 -85 -114 -117 0 -7 -6 -13 -14 -13 -19 0 -35 -22 -27 -40 3
-8 17 -17 31 -18 14 -2 26 -5 28 -7 2 -2 -26 -17 -63 -35 -108 -52 -241 -81
-395 -87 -215 -9 -354 16 -594 108 l-138 52 48 18 c44 17 114 73 114 91 0 5
-18 28 -40 52 -39 42 -49 69 -31 81 6 3 34 10 64 15 49 9 58 8 98 -14 138 -77
476 -112 696 -72 108 19 250 74 354 136 127 75 313 280 295 325 -8 22 -36 18
-77 -9 -20 -14 -53 -27 -75 -31 -21 -4 -63 -16 -91 -27 -42 -16 -51 -23 -44
-36 5 -8 6 -23 4 -33 -3 -11 0 -19 6 -19 6 0 11 11 11 24 0 16 7 26 23 30 32
8 77 7 77 -2 0 -22 -137 -126 -225 -170 -78 -39 -231 -91 -314 -106 -153 -29
-390 -14 -541 35 -75 25 -90 35 -63 43 11 4 31 18 44 33 l24 26 -25 -6 c-285
-62 -379 -61 -568 8 -67 24 -86 26 -87 7 -5 -59 -54 -86 -153 -84 -68 1 -72 0
-62 -18 22 -41 -15 -106 -49 -86 -5 4 -11 0 -13 -6 -8 -22 -250 -15 -323 10
l-60 20 -12 63 c-7 34 -10 66 -6 70 5 5 46 31 92 59 152 91 304 121 516 101
146 -14 218 -33 252 -67 26 -26 43 -31 43 -11 0 8 3 7 10 -3 5 -8 12 -11 17
-7 4 4 1 17 -6 29 -14 23 -6 33 37 44 40 11 24 21 -65 39 -49 10 -135 29 -193
43 -90 22 -127 26 -260 26 -135 0 -167 -4 -250 -26 -52 -14 -126 -40 -164 -57
-38 -17 -70 -30 -72 -29 -1 2 -9 27 -18 56 l-15 54 83 39 c122 57 197 72 356
73 214 1 390 -43 615 -153 111 -55 130 -61 260 -81 165 -25 396 -42 445 -31
l35 7 -45 7 c-25 4 -112 12 -195 17 -250 16 -376 32 -382 47 -3 8 -3 16 -1 19
3 2 110 -5 239 -16 400 -34 720 -25 897 26 73 21 235 91 332 143 41 22 78 41
82 41 4 0 16 -10 28 -22z m-10070 -54 c73 -43 191 -90 309 -122 94 -26 103
-26 411 -27 285 0 535 14 693 40 38 6 34 -12 -8 -37 -45 -26 -39 -32 19 -24
30 5 63 21 98 47 60 45 262 127 378 154 87 20 269 23 345 6 70 -16 181 -59
207 -81 22 -17 22 -20 10 -66 -7 -27 -15 -50 -17 -52 -1 -2 -34 12 -71 31
-183 92 -354 99 -649 26 -180 -44 -187 -49 -135 -87 l30 -22 57 19 c126 42
401 56 516 26 110 -29 221 -100 215 -139 -2 -11 -7 -19 -13 -16 -5 3 -9 8 -7
13 2 6 -14 10 -20 5 -2 -1 -23 10 -48 24 -73 43 -143 58 -249 56 -88 -2 -90
-2 -24 -5 53 -3 73 -8 77 -20 5 -12 1 -14 -18 -11 -22 4 -58 -1 -196 -28 -55
-11 -24 -14 162 -14 192 0 195 0 221 -24 14 -13 27 -23 29 -22 2 0 -5 -7 -15
-16 -17 -16 -18 -18 -2 -18 10 0 15 -5 12 -14 -3 -7 -1 -18 5 -24 8 -8 7 -16
-3 -28 -12 -16 -12 -17 4 -11 11 4 17 2 17 -8 0 -7 -8 -14 -17 -14 -10 0 -36
-4 -58 -10 -36 -10 -184 -7 -241 4 -11 3 -26 16 -32 29 -10 22 -8 28 17 48 16
13 37 28 47 34 15 9 5 11 -49 12 -119 2 -196 37 -184 84 5 18 2 19 -27 14 -18
-4 -62 -18 -97 -32 -128 -50 -249 -54 -437 -13 -51 11 -98 18 -105 16 -7 -2
10 -18 37 -35 l49 -32 -38 -16 c-53 -22 -155 -42 -245 -49 -41 -3 -92 -8 -113
-10 -59 -7 -244 13 -327 36 -207 55 -408 163 -451 241 -9 16 -6 16 29 4 54
-19 121 -54 158 -83 20 -15 38 -21 49 -16 13 4 16 3 11 -5 -4 -7 -2 -12 3 -12
34 0 -2 36 -74 75 -27 15 -39 25 -25 21 14 -3 50 -8 80 -11 51 -4 47 -2 -60
34 -63 21 -154 57 -201 79 -96 46 -169 64 -169 40 0 -27 63 -113 134 -184 152
-151 356 -254 571 -289 234 -38 561 -1 702 81 51 29 52 29 114 2 l50 -21 -57
-58 -57 -58 17 -26 c10 -15 44 -43 77 -64 l59 -38 -55 -27 c-131 -64 -335
-119 -485 -131 -163 -14 -420 30 -557 95 -54 25 -63 33 -58 49 5 16 0 22 -22
27 -26 6 -102 45 -131 67 -10 8 -9 12 3 21 14 10 14 13 -3 31 -10 11 -39 36
-65 55 -44 33 -57 50 -39 50 5 0 47 -13 94 -29 100 -35 208 -57 234 -47 27 10
9 21 -126 76 -171 69 -305 145 -362 204 -59 61 -108 155 -108 208 0 46 23 95
47 100 23 6 84 -18 153 -58z m5915 -220 c38 -25 151 -168 181 -230 18 -36 29
-76 30 -113 l3 -56 -15 50 c-34 115 -108 231 -203 319 -45 43 -42 61 4 30z
m-375 -22 c0 -10 16 -33 35 -52 19 -19 35 -38 35 -42 0 -4 -17 -8 -38 -8 -30
0 -41 5 -50 23 -15 30 -17 48 -8 75 9 26 26 29 26 4z m-2143 -66 c2 -1 4 -13
5 -25 3 -27 -22 -47 -46 -38 -16 6 -23 57 -9 70 5 6 41 0 50 -7z m3013 -1 c26
-32 -13 -81 -47 -59 -35 22 -23 74 17 74 10 0 23 -7 30 -15z m-4669 -87 c-38
-52 -32 -62 12 -20 36 35 47 39 47 19 0 -14 -39 -54 -46 -49 -3 1 -12 -2 -22
-7 -29 -17 43 -13 85 4 38 16 83 20 83 8 0 -5 -20 -21 -45 -36 -25 -16 -45
-36 -45 -44 0 -16 13 -15 85 3 22 5 26 4 20 -6 -5 -9 -4 -11 4 -6 6 4 17 3 24
-2 7 -5 26 -14 42 -19 l30 -11 -70 -33 -70 -34 -200 0 c-188 0 -202 2 -242 23
-24 12 -43 30 -43 38 0 20 58 74 122 116 67 42 197 98 231 98 l29 0 -31 -42z
m6448 11 c13 20 68 3 150 -47 97 -59 161 -114 158 -137 -4 -36 -85 -57 -245
-63 -166 -5 -270 8 -354 45 -65 29 -73 43 -25 43 47 0 61 13 54 49 -4 16 -3
32 1 34 4 3 30 -1 57 -9 61 -16 72 -17 60 -5 -6 5 -26 14 -45 20 -31 10 -26
10 36 7 l71 -5 -5 51 -5 50 42 -23 c35 -20 43 -22 50 -10z m-4285 -95 c5 -14
4 -15 -9 -4 -17 14 -19 20 -6 20 5 0 12 -7 15 -16z m76 -8 c0 -2 -7 -6 -15
-10 -8 -3 -15 -1 -15 4 0 6 7 10 15 10 8 0 15 -2 15 -4z m90 -26 c0 -5 -2 -10
-4 -10 -3 0 -8 5 -11 10 -3 6 -1 10 4 10 6 0 11 -4 11 -10z m3420 -51 c47 -14
148 -37 240 -53 72 -13 73 -13 50 4 -69 51 -68 49 -41 50 14 0 68 -25 120 -54
124 -71 138 -76 227 -79 40 -1 74 -5 74 -8 0 -8 122 -82 165 -101 17 -7 50
-28 74 -46 193 -145 569 -221 826 -167 124 26 341 101 433 149 45 24 82 41 82
39 0 -14 -98 -128 -162 -189 -110 -105 -347 -254 -402 -254 -8 0 -22 -3 -32
-7 -16 -6 -16 -7 2 -14 14 -5 7 -8 -22 -8 -22 -1 -43 2 -47 5 -3 4 36 21 88
39 108 37 199 93 266 162 85 89 112 153 37 88 -55 -48 -260 -147 -363 -177
-179 -51 -444 -14 -670 93 -32 15 -60 27 -62 26 -10 -11 78 -68 192 -125 140
-69 463 -152 598 -152 l72 0 -25 -20 c-47 -37 -157 -90 -221 -106 -163 -42
-389 -9 -579 86 -86 43 -174 115 -150 123 8 3 44 13 80 23 82 22 86 25 65 36
-29 17 -125 26 -125 13 0 -30 -174 -34 -270 -6 -81 23 -178 71 -225 112 -42
37 -44 49 -7 49 15 0 72 7 126 15 95 14 101 14 120 -4 25 -22 346 -132 346
-118 0 9 -110 77 -122 76 -10 0 -10 -2 0 -6 6 -2 12 -9 12 -13 0 -5 -16 0 -35
11 -37 22 -49 37 -16 19 25 -13 31 -13 31 0 0 6 -10 14 -22 19 -23 8 -31 40
-13 53 6 4 37 6 70 4 33 -2 49 -2 35 1 -37 7 -45 20 -19 28 29 9 92 55 85 62
-2 3 -21 -1 -40 -8 -32 -11 -40 -11 -65 4 -25 14 -30 15 -41 2 -6 -7 -34 -22
-62 -31 -78 -26 -192 -14 -283 29 -89 43 -135 81 -135 113 l0 24 58 -26 c100
-45 223 -75 362 -89 60 -6 64 -5 49 10 -9 9 -54 32 -99 51 -46 18 -93 42 -104
53 -21 18 -59 41 -70 41 -3 0 -5 -10 -3 -22 3 -33 -22 -33 -120 -2 -71 22 -95
36 -130 71 -24 24 -47 43 -52 43 -5 0 -11 -18 -15 -40 -3 -22 -10 -40 -14 -40
-13 0 -136 40 -148 48 -13 8 -29 102 -17 102 4 0 24 -5 43 -11z m2280 1 c0 -5
-19 -22 -43 -39 -32 -21 -47 -27 -58 -19 -12 8 -12 9 1 6 8 -3 19 -1 25 3 5 5
24 20 40 33 34 29 35 29 35 16z m-7600 -26 c0 -4 -16 -24 -35 -46 -20 -21 -41
-50 -47 -63 -14 -32 -52 -45 -113 -40 -27 2 -54 4 -59 5 -4 0 -6 7 -2 15 3 8
-29 -9 -71 -38 -50 -34 -77 -48 -80 -39 -3 6 -10 12 -17 12 -19 0 -136 -81
-131 -90 3 -4 -9 -10 -25 -14 -21 -4 -30 -11 -30 -26 0 -11 1 -20 3 -20 1 0
34 -13 73 -29 38 -16 89 -32 112 -36 l43 -7 -58 -28 c-55 -27 -164 -71 -209
-84 -24 -7 -73 -56 -56 -56 6 0 26 7 44 15 18 8 80 33 138 55 58 23 121 51
141 62 35 19 43 20 155 9 159 -16 158 -16 137 -47 -27 -41 -96 -82 -194 -115
-101 -34 -172 -36 -289 -9 -66 16 -119 7 -100 -15 7 -8 39 -22 71 -31 32 -9
59 -21 59 -26 0 -39 -180 -137 -335 -183 -73 -22 -111 -27 -200 -27 -60 0
-132 5 -160 11 -57 14 -218 88 -253 117 -23 19 -23 19 85 20 117 2 250 26 381
69 98 33 295 131 323 161 20 21 11 19 -71 -17 -202 -87 -380 -109 -567 -68
-112 24 -176 50 -270 111 -37 24 -74 48 -81 52 -29 17 51 -111 88 -142 34 -28
159 -83 220 -96 l65 -14 -60 -1 c-36 -1 -66 4 -74 12 -11 10 -12 9 -6 -2 13
-23 -34 -3 -136 60 -118 73 -221 160 -319 270 -111 126 -111 125 -53 90 103
-64 352 -151 498 -176 159 -27 389 -5 559 54 82 29 208 97 344 188 112 74 119
77 204 89 66 9 108 22 166 50 110 55 192 79 192 58z m1557 -20 c-3 -3 -12 -4
-19 -1 -8 3 -5 6 6 6 11 1 17 -2 13 -5z m61 -1 c-10 -2 -26 -2 -35 0 -10 3 -2
5 17 5 19 0 27 -2 18 -5z m75 0 c-7 -2 -21 -2 -30 0 -10 3 -4 5 12 5 17 0 24
-2 18 -5z m130 0 c-13 -2 -35 -2 -50 0 -16 2 -5 4 22 4 28 0 40 -2 28 -4z
m-1633 -23 c0 -5 -7 -7 -15 -4 -8 4 -15 8 -15 10 0 2 7 4 15 4 8 0 15 -4 15
-10z m-2198 -93 c130 -92 305 -152 540 -183 257 -34 510 12 787 142 52 24 96
42 98 40 6 -6 -235 -141 -304 -170 -158 -66 -402 -103 -559 -85 -149 16 -382
88 -491 150 -50 29 -142 119 -165 163 -9 18 -9 19 3 10 8 -7 49 -36 91 -67z
m2125 56 c3 -7 -14 -21 -36 -32 l-41 -19 1 31 c0 18 3 26 6 20 2 -7 9 -13 14
-13 6 0 7 5 3 11 -5 8 -1 8 14 0 12 -7 23 -7 27 -2 3 5 -3 12 -12 15 -15 4
-15 5 1 3 11 -1 21 -7 23 -14z m7532 -15 c-26 -48 -54 -79 -110 -118 -76 -54
-125 -74 -283 -121 -178 -52 -251 -63 -403 -57 -150 6 -275 33 -408 88 -101
41 -367 180 -347 180 7 0 62 -20 122 -45 300 -123 446 -156 675 -157 284 0
529 73 695 206 62 51 76 56 59 24z m-3719 -53 c0 -5 -4 -26 -9 -45 -6 -19 -15
-54 -21 -77 -8 -32 -16 -43 -30 -43 -17 0 -18 6 -13 73 l6 72 -884 2 c-486 0
-1009 3 -1162 5 l-278 3 6 -80 c5 -73 4 -78 -9 -55 -8 14 -17 54 -21 90 l-7
65 1211 0 c801 0 1211 -3 1211 -10z m-3761 -47 c-18 -34 -52 -68 -68 -68 -10
0 -7 8 9 25 13 14 20 25 16 25 -4 0 6 12 21 28 31 30 41 26 22 -10z m5196 32
c34 -13 52 -58 30 -79 -15 -15 -15 -14 -9 3 5 12 4 17 -3 13 -13 -8 -67 48
-59 62 9 13 9 13 41 1z m-5424 -36 c-31 -40 -91 -84 -151 -113 -47 -22 -69
-26 -145 -26 -65 0 -104 5 -139 19 l-50 19 125 29 c68 16 169 44 224 63 55 18
113 33 128 34 l28 1 -20 -26z m1127 -44 l27 0 -23 -18 c-18 -14 -21 -23 -16
-51 l7 -34 -30 18 c-28 17 -32 17 -54 1 -35 -24 -41 -20 -23 15 15 30 15 32
-8 53 l-23 21 32 3 c22 2 34 10 39 24 6 21 7 21 26 -5 13 -18 29 -27 46 -27z
m3460 -2 l23 -3 -22 -23 c-18 -20 -20 -28 -10 -48 8 -19 8 -24 -4 -24 -7 0
-17 5 -21 11 -4 7 -20 8 -41 4 -34 -6 -35 -5 -29 18 5 20 0 30 -22 46 l-27 20
33 1 c25 0 35 6 44 25 l12 26 20 -25 c12 -14 31 -26 44 -28z m1060 -70 c18
-11 31 -23 28 -25 -6 -6 -51 23 -94 59 -18 16 -38 26 -43 22 -5 -3 -8 -1 -7 4
2 5 -8 19 -22 31 -14 13 4 2 40 -24 36 -25 80 -56 98 -67z m-5558 72 c-43 -37
-76 -57 -65 -40 8 12 85 70 94 70 3 0 -10 -14 -29 -30z m50 -5 c-18 -19 -37
-32 -42 -29 -5 3 8 18 29 34 51 38 54 37 13 -5z m5282 -5 c30 -34 49 -39 41
-11 -7 29 14 35 34 10 65 -81 118 -110 202 -111 l56 0 -40 -15 c-47 -17 -131
-11 -178 14 -40 20 -123 91 -143 121 -21 32 -3 27 28 -8z m-2972 -6 c0 -9 5
-12 12 -8 7 5 8 3 3 -6 -5 -8 -1 -18 10 -27 15 -10 16 -16 7 -25 -7 -7 -12
-16 -12 -22 0 -6 5 -5 12 2 14 14 32 16 23 3 -3 -5 -1 -12 5 -16 14 -9 1 -27
-16 -21 -9 3 -11 -1 -8 -12 3 -10 -4 -6 -18 11 -28 33 -59 34 -105 6 -28 -18
-79 -92 -75 -109 1 -3 -5 -5 -12 -5 -23 0 -28 -12 -17 -34 9 -17 9 -20 -3 -15
-9 3 -20 -3 -27 -15 -11 -16 -16 -18 -28 -8 -12 10 -13 9 -6 -2 5 -10 4 -12
-3 -7 -7 4 -12 13 -12 19 0 7 -11 14 -25 15 l-24 2 25 -38 25 -37 -33 -14
c-59 -24 -153 -33 -211 -21 -71 14 -241 99 -275 136 -7 7 -9 12 -6 9 4 -3 13
0 21 6 9 8 13 8 13 1 0 -6 7 -9 15 -6 8 4 13 10 10 14 -3 4 12 11 32 15 56 10
71 21 104 76 28 45 34 49 69 49 52 0 88 -17 128 -58 31 -33 34 -34 85 -28 28
3 63 7 77 9 32 3 49 33 43 73 -5 29 -3 32 28 38 19 4 52 20 74 36 44 32 95 40
95 14z m-2200 -29 c0 -19 -4 -23 -17 -18 -12 5 -14 3 -8 -7 5 -9 4 -11 -3 -6
-7 4 -12 2 -12 -5 0 -7 -3 -10 -6 -6 -5 5 34 64 44 66 1 1 2 -10 2 -24z m5106
-2 c-3 -8 2 -29 11 -46 16 -30 18 -36 22 -54 1 -5 5 -2 10 6 7 11 12 8 26 -12
15 -23 54 -49 40 -27 -3 6 -2 10 4 10 16 0 39 -41 46 -85 l7 -40 -76 75 c-42
41 -83 89 -91 106 -17 37 -21 99 -4 89 6 -4 8 -14 5 -22z m-5286 -8 c-7 -9
-15 -13 -17 -11 -7 7 7 26 19 26 6 0 6 -6 -2 -15z m64 -10 c-9 -14 -19 -23
-22 -20 -3 2 -11 0 -19 -7 -7 -6 -16 -9 -18 -6 -4 4 64 58 73 58 1 0 -5 -11
-14 -25z m-150 -23 c-16 -16 -31 -29 -34 -29 -3 0 -11 -1 -18 -2 -7 0 -10 -5
-7 -11 4 -6 -7 -10 -27 -10 l-33 1 37 18 c21 11 50 28 65 40 40 30 50 26 17
-7z m76 -22 c0 -5 -5 -10 -11 -10 -5 0 -7 5 -4 10 3 6 8 10 11 10 2 0 4 -4 4
-10z m1760 -8 c0 -25 -34 -54 -100 -87 -30 -15 -72 -43 -92 -61 -25 -22 -61
-40 -110 -54 -135 -39 -233 -73 -280 -96 -26 -13 -50 -24 -52 -24 -5 0 6 22
52 100 11 19 27 59 36 88 41 142 97 166 278 119 l88 -23 -45 -22 c-32 -16 -64
-22 -108 -22 -51 0 -71 -5 -104 -27 -34 -22 -83 -85 -83 -106 0 -23 189 36
198 62 3 9 -4 7 -23 -5 -21 -14 -31 -15 -46 -6 -19 12 -49 7 -49 -9 0 -5 -5
-9 -12 -9 -21 0 34 49 68 60 25 9 43 9 69 0 33 -11 39 -10 71 17 74 58 100 76
149 99 61 29 95 31 95 6z m-1816 2 c25 -10 19 -22 -9 -16 -14 2 -22 8 -19 13
6 11 8 11 28 3z m246 -52 c0 -9 -50 -65 -70 -78 -14 -9 -30 -30 -85 -110 -34
-50 -32 -86 6 -118 17 -14 37 -26 45 -26 28 0 13 -19 -58 -72 -93 -69 -170
-112 -238 -132 -56 -17 -161 -20 -195 -7 -17 7 -14 11 28 31 26 12 46 25 43
27 -6 6 -118 -27 -143 -43 -13 -8 -23 -23 -23 -34 0 -22 20 -34 92 -59 l50
-17 -74 -37 c-135 -68 -201 -81 -388 -82 -147 0 -176 3 -267 27 -92 24 -228
76 -220 84 1 2 32 -6 67 -17 84 -26 229 -24 257 4 17 16 14 17 -47 12 -71 -5
-64 0 15 10 69 9 42 21 -84 34 -112 12 -235 40 -297 68 -84 38 -170 103 -136
103 5 0 55 -24 113 -53 124 -63 221 -87 355 -87 165 0 330 44 663 174 194 77
235 99 304 165 32 30 66 56 75 56 9 0 17 7 18 15 2 36 4 43 10 37 10 -10 55
18 94 56 19 19 38 33 42 30 5 -2 8 3 8 12 0 9 5 13 10 10 6 -3 10 1 10 9 0 9
5 16 10 16 6 0 10 -3 10 -8z m2197 -4 c17 -22 22 -60 12 -80 -8 -16 -7 -19 7
-16 9 2 18 -3 20 -10 1 -7 0 -8 -2 -3 -3 5 -13 7 -23 4 -10 -2 -25 2 -33 11
-9 8 -18 13 -21 10 -7 -7 -57 26 -57 38 0 16 49 58 68 58 11 0 24 -6 29 -12z
m3623 2 c0 -5 -7 -7 -15 -4 -8 4 -15 8 -15 10 0 2 7 4 15 4 8 0 15 -4 15 -10z
m-590 -164 c0 -19 61 -77 73 -70 7 4 2 -3 -11 -15 -13 -13 -30 -20 -38 -17 -7
3 -14 0 -14 -7 -1 -20 -29 22 -72 108 -22 44 -49 91 -59 104 -11 13 -19 31
-19 40 0 9 30 -15 70 -58 39 -41 70 -79 70 -85z m-5274 -30 c-37 -82 -56 -96
-56 -42 0 24 11 47 42 85 24 29 44 48 46 42 2 -5 -13 -44 -32 -85z m2914 69
c8 -10 10 -29 6 -54 -4 -27 -2 -41 7 -44 6 -3 1 -6 -12 -6 -13 -1 -49 10 -80
23 -31 14 -69 28 -85 33 -28 9 -27 9 35 35 74 30 112 34 129 13z m2224 -30
c-3 -7 -1 -22 6 -32 9 -16 10 -15 5 7 -6 21 -2 18 19 -12 31 -44 33 -64 6 -64
-12 0 -20 7 -20 18 0 9 -4 20 -10 23 -6 4 -7 -1 -4 -12 5 -16 4 -16 -10 2 -9
11 -14 26 -11 33 3 8 5 25 5 38 0 14 4 23 10 19 5 -3 7 -12 4 -20z m-3974 11
c0 -2 -7 -7 -16 -10 -8 -3 -12 -2 -9 4 6 10 25 14 25 6z m4266 -36 c-5 19 7
10 51 -37 81 -87 91 -92 578 -263 147 -52 339 -90 451 -90 129 0 268 43 402
125 62 38 51 15 -15 -31 -78 -55 -167 -89 -298 -114 -61 -11 -137 -26 -169
-32 l-60 -12 35 -12 34 -12 -35 -2 -35 -2 40 -13 c58 -19 121 -18 205 4 41 11
76 18 79 16 7 -7 -67 -35 -148 -56 -211 -54 -409 -65 -544 -29 -85 22 -219 73
-249 95 -18 12 -16 14 34 29 70 20 100 42 96 69 -3 25 -55 54 -108 62 l-35 5
32 -15 c44 -20 49 -33 18 -45 -73 -28 -196 -1 -338 72 -78 41 -185 127 -158
128 26 0 89 51 101 80 9 22 9 37 1 61 -15 44 -14 46 15 18 l26 -24 -6 25z
m-5692 -35 c-8 -21 -88 -71 -153 -96 -39 -15 -87 -23 -161 -26 -97 -5 -104 -4
-89 11 9 10 51 22 105 31 101 16 202 46 254 75 43 23 51 24 44 5z m321 5 c3
-5 1 -10 -4 -10 -6 0 -11 5 -11 10 0 6 2 10 4 10 3 0 8 -4 11 -10z m5651 -58
c43 -11 104 -23 134 -27 120 -16 97 -42 -28 -32 -95 7 -192 37 -254 76 -66 42
-60 55 10 26 32 -13 94 -33 138 -43z m-5671 9 c-3 -12 -10 -21 -15 -21 -5 0
-4 11 2 25 13 29 23 26 13 -4z m2932 23 c-3 -3 -12 -4 -19 -1 -8 3 -5 6 6 6
11 1 17 -2 13 -5z m1041 -39 c-3 -3 -9 2 -12 12 -6 14 -5 15 5 6 7 -7 10 -15
7 -18z m-77 -8 c-10 -9 -11 -8 -5 6 3 10 9 15 12 12 3 -3 0 -11 -7 -18z
m-2704 -48 c76 -26 262 -8 386 37 31 12 37 12 37 0 0 -17 49 -61 111 -100 45
-29 47 -32 45 -74 -1 -44 0 -45 62 -86 35 -22 96 -71 136 -107 87 -80 96 -85
167 -94 46 -6 65 -3 108 15 28 13 56 32 62 42 15 28 6 31 -22 10 -13 -10 -37
-23 -54 -29 -66 -22 -190 7 -190 44 0 14 -7 17 -32 15 -18 -1 -33 2 -33 8 0 5
-14 22 -30 37 -18 16 -29 35 -28 46 2 11 -3 22 -9 24 -7 3 -13 -3 -13 -14 -1
-16 -2 -16 -13 -2 -7 9 -25 22 -42 30 -32 15 -47 49 -21 49 9 0 16 -4 16 -10
0 -5 5 -10 11 -10 6 0 9 6 6 14 -5 12 -2 12 20 1 14 -7 32 -11 39 -8 10 3 14
-3 14 -20 0 -33 48 -46 82 -23 28 20 45 20 65 0 11 -11 19 -12 26 -5 6 6 16
11 21 11 6 0 5 -5 -2 -12 -7 -7 -12 -16 -12 -20 0 -17 28 -7 54 19 30 30 44
24 28 -12 -14 -31 0 -41 23 -15 13 15 15 23 7 33 -9 10 -4 12 26 9 20 -3 41
-11 45 -18 10 -18 43 -18 54 -1 4 7 47 21 95 30 69 14 95 16 127 7 52 -14 66
-34 18 -25 -76 15 -141 -27 -217 -139 -79 -118 -124 -146 -231 -146 -81 0
-118 19 -186 97 -31 35 -75 75 -99 89 -40 24 -105 88 -172 172 -18 23 -54 54
-80 69 -47 28 -48 28 -232 28 -193 1 -234 8 -282 52 -17 15 -17 17 -1 28 15
11 22 9 45 -10 15 -13 44 -29 65 -36z m1783 21 c-14 -4 -34 -8 -45 -8 l-20 -1
20 9 c11 5 31 8 45 8 l25 0 -25 -8z m835 -33 c-29 -20 -55 -28 -55 -17 0 6 9
10 19 10 11 0 23 5 26 10 3 6 11 10 18 10 6 0 3 -6 -8 -13z m293 -55 c4 -58
-24 -163 -49 -184 -29 -25 -65 -24 -65 1 0 11 5 19 11 18 5 -1 10 8 9 20 0 12
3 20 8 17 15 -10 13 103 -3 122 -13 16 38 56 65 52 17 -2 22 -11 24 -46z
m-3050 16 c7 -7 12 -25 12 -40 0 -54 39 -112 120 -177 l25 -20 -38 -1 c-97 -1
-146 61 -147 183 0 67 5 78 28 55z m4128 -39 c205 -105 218 -114 248 -168 15
-28 31 -53 37 -57 5 -3 21 -24 36 -47 24 -39 25 -41 7 -54 -10 -7 -44 -13 -80
-13 -54 0 -74 6 -140 41 -43 22 -105 64 -138 93 -48 41 -124 100 -144 112 -8
5 28 128 39 135 22 14 30 12 135 -42z m-5136 31 c-8 -6 -52 -31 -97 -56 -46
-25 -83 -50 -83 -55 0 -13 5 -12 65 20 47 25 60 28 85 19 36 -12 40 -23 5 -14
-14 4 -25 2 -25 -3 0 -6 -7 -8 -15 -5 -8 4 -15 1 -15 -5 0 -6 9 -11 20 -11 14
0 20 -6 19 -22 -1 -18 -2 -19 -6 -5 -3 10 -10 16 -16 14 -7 -2 -18 3 -25 10
-11 10 -17 11 -28 2 -8 -6 -14 -8 -14 -3 0 5 -5 2 -10 -6 -15 -23 -12 -76 5
-90 20 -17 19 -31 -2 -23 -14 4 -15 3 -7 -6 12 -13 44 -5 44 13 0 6 5 4 10 -4
7 -11 10 -11 10 -2 0 7 4 11 9 7 5 -3 12 4 16 15 3 11 11 19 17 17 6 -1 13 4
15 11 3 8 -1 10 -14 6 -16 -6 -16 -5 -3 7 8 8 21 21 29 29 11 13 12 12 2 -7
-13 -26 -9 -28 20 -12 12 6 18 17 15 24 -3 8 -1 17 4 20 6 4 10 -2 10 -12 0
-17 -111 -126 -169 -166 -111 -77 -212 -97 -278 -57 -39 23 -42 48 -12 96 34
55 78 85 344 231 33 18 67 33 75 33 13 0 13 -1 0 -10z m24 -52 c8 -33 7 -48
-4 -48 -5 0 -10 11 -10 25 0 14 -5 25 -11 25 -5 0 -7 5 -4 10 10 17 22 11 29
-12z m2670 -18 c60 -11 130 -20 154 -20 64 0 44 -12 -28 -17 -61 -5 -172 10
-220 30 -14 6 -28 10 -32 9 -5 -1 -8 2 -8 7 0 5 -8 12 -17 14 -38 9 47 -3 151
-23z m279 -27 c-7 -2 -21 -2 -30 0 -10 3 -4 5 12 5 17 0 24 -2 18 -5z m2001
-115 c12 -13 47 -45 79 -72 31 -27 57 -52 57 -56 0 -17 -71 -3 -95 20 -22 21
-30 20 -26 -2 1 -10 0 -10 -38 3 -17 6 -31 18 -31 26 0 12 2 12 16 -1 8 -9 19
-16 23 -16 13 0 10 42 -5 57 -10 10 -14 11 -14 2 0 -7 -2 -10 -5 -7 -3 3 -3
12 1 21 5 14 18 6 68 -38 88 -79 91 -68 4 15 -40 38 -69 69 -64 70 5 0 18 -10
30 -22z m631 -53 c14 -18 172 -107 251 -141 63 -28 64 -29 66 -69 1 -38 1 -38
5 -7 4 29 8 33 26 29 182 -45 419 -56 507 -24 34 12 46 13 52 4 10 -15 -13
-32 -71 -53 -25 -9 -64 -25 -86 -35 -22 -10 -71 -21 -110 -24 -76 -7 -233 9
-249 25 -13 13 -26 13 -26 0 0 -12 72 -50 97 -51 10 0 2 -7 -17 -14 -48 -18
-191 -18 -270 1 -36 8 -101 34 -146 58 -80 43 -194 122 -194 135 0 4 16 13 36
20 41 15 77 66 68 96 -3 11 -26 41 -51 66 l-44 46 73 -25 c39 -13 77 -30 83
-37z m-1692 48 c-7 -2 -19 -2 -25 0 -7 3 -2 5 12 5 14 0 19 -2 13 -5z m-4393
-32 c-30 -57 0 -125 71 -161 21 -11 39 -22 39 -24 0 -2 -31 -27 -69 -55 -85
-64 -217 -126 -295 -140 -67 -12 -180 -14 -241 -3 l-40 7 32 14 c32 13 60 38
52 46 -2 2 -38 -3 -79 -11 -76 -15 -158 -13 -232 7 -65 17 -49 24 44 21 102
-4 217 12 245 34 17 14 17 15 -5 9 -40 -11 -185 -22 -242 -18 -59 4 -160 22
-160 28 0 2 44 2 98 -2 142 -8 266 10 386 57 92 36 139 62 320 173 68 42 92
48 76 18z m530 -6 c0 -2 -15 -21 -32 -41 -31 -36 -32 -37 -8 -29 14 4 39 14
55 21 l30 14 -25 -17 c-14 -10 -35 -28 -48 -40 -13 -13 -27 -23 -32 -23 -6 0
-10 -4 -10 -10 0 -5 8 -10 18 -10 17 0 31 -34 47 -117 l7 -33 -44 0 c-24 0
-60 3 -81 6 -37 7 -37 7 -31 43 l7 36 -24 -30 c-13 -16 -31 -36 -41 -43 -28
-21 -22 -42 12 -42 16 0 50 -13 75 -29 l45 -29 -40 -16 c-63 -25 -154 -18
-189 15 -21 19 -21 20 66 127 122 149 243 273 243 247z m1787 -87 c16 -17 5
-18 -250 -18 l-267 0 0 -27 c2 -72 58 -167 128 -213 58 -39 33 -39 -34 0 -65
37 -118 114 -138 201 -8 34 -13 67 -9 72 3 5 121 7 279 5 244 -3 275 -5 291
-20z m1923 8 c0 -32 -40 -139 -69 -185 -46 -71 -109 -111 -196 -124 -39 -6
-38 -6 10 11 92 32 121 57 161 136 19 40 38 91 41 112 l5 40 -68 -6 c-38 -3
-345 -7 -683 -9 -502 -2 -612 0 -609 11 4 10 112 14 549 18 299 3 615 6 702 8
130 2 157 0 157 -12z m1137 -48 c-3 -8 -6 -5 -6 6 -1 11 2 17 5 13 3 -3 4 -12
1 -19z m319 -65 c94 -108 135 -166 126 -180 -12 -18 -116 -36 -165 -29 -26 4
-56 16 -69 26 l-23 19 27 1 c36 0 119 18 138 30 20 12 -3 53 -38 69 -22 11
-24 10 -13 -3 7 -8 10 -20 6 -26 -7 -11 -101 -13 -194 -4 -60 7 -61 7 -61 38
0 23 3 27 9 16 6 -8 7 -18 5 -22 -3 -4 1 -8 10 -8 8 0 21 -3 30 -6 14 -5 16 5
16 69 l0 75 48 10 c26 5 52 10 59 11 7 0 47 -38 89 -86z m-2641 47 c3 -5 1
-10 -4 -10 -6 0 -11 5 -11 10 0 6 2 10 4 10 3 0 8 -4 11 -10z m-792 -20 c11 0
15 -4 11 -12 -5 -8 -2 -9 9 -5 12 5 17 1 17 -14 0 -18 -1 -19 -24 -4 -19 13
-25 13 -29 3 -4 -9 -6 -8 -6 3 -1 9 -11 21 -23 28 -23 11 -23 11 2 6 14 -2 33
-5 43 -5z m-359 -26 c3 -8 2 -12 -4 -9 -6 3 -10 10 -10 16 0 14 7 11 14 -7z
m3441 -21 c-12 -34 -11 -39 3 -45 14 -5 13 -7 -4 -7 -11 -1 -23 2 -27 5 -8 8
26 84 38 84 1 0 -3 -17 -10 -37z m-5126 0 c-8 -9 -31 -35 -51 -57 -21 -23 -38
-47 -38 -53 0 -26 -74 -94 -134 -123 -72 -35 -179 -60 -256 -59 -54 1 -54 1
28 15 46 8 91 19 100 24 12 8 2 8 -33 3 -27 -5 -115 -8 -195 -8 -133 0 -152 2
-227 28 -46 16 -85 33 -88 38 -11 17 22 9 81 -18 55 -26 68 -28 179 -27 89 1
141 7 200 22 111 30 233 93 300 153 63 58 171 108 134 62z m434 -13 c3 -11 2
-18 -3 -15 -4 3 -10 14 -13 25 -3 11 -2 18 3 15 4 -3 10 -14 13 -25z m5270
-55 c137 -94 335 -163 499 -172 105 -6 159 3 239 41 27 13 49 21 49 16 0 -12
-111 -58 -169 -71 -32 -7 -107 -10 -182 -7 -71 2 -129 1 -129 -3 0 -3 19 -11
43 -16 l42 -11 -35 -1 c-51 -1 -192 35 -253 65 -49 25 -147 109 -147 127 0 4
5 5 12 1 7 -4 8 -3 4 5 -4 6 -11 9 -15 7 -7 -5 -65 59 -85 92 -11 18 28 -4
127 -73z m-438 55 c3 -5 -1 -10 -10 -10 -9 0 -13 5 -10 10 3 6 8 10 10 10 2 0
7 -4 10 -10z m-70 -30 c3 -5 1 -10 -4 -10 -6 0 -11 5 -11 10 0 6 2 10 4 10 3
0 8 -4 11 -10z m-4750 -110 c-11 -5 -27 -9 -35 -9 -13 -1 -13 0 0 9 8 5 24 9
35 9 l20 0 -20 -9z m4755 -16 c36 -17 65 -24 82 -20 29 6 118 -38 125 -61 7
-20 -67 -27 -162 -15 -88 11 -195 46 -218 73 -10 11 -9 11 5 0 19 -14 58 -6
58 13 0 17 21 36 40 36 8 0 40 -12 70 -26z m-4840 -9 c-19 -7 -47 -14 -61 -14
-28 -1 -103 -54 -91 -65 3 -4 -2 -4 -12 0 -14 5 -17 4 -12 -4 4 -7 2 -12 -3
-12 -21 0 -10 19 31 54 30 26 51 36 77 37 20 0 45 4 56 9 11 5 27 9 35 9 8 0
-1 -7 -20 -14z m-331 -65 l45 -22 -24 -18 c-44 -34 -244 -80 -227 -53 4 6 20
13 36 16 16 3 42 18 57 33 l29 26 -38 -21 c-35 -19 -139 -51 -168 -51 -7 0 16
14 50 31 38 19 77 49 103 80 l43 48 25 -23 c14 -13 45 -34 69 -46z m5672 14
c28 -25 66 -53 85 -62 67 -31 29 -44 -52 -16 -25 8 -48 13 -51 10 -10 -10 68
-37 131 -46 l61 -7 -68 -2 c-49 -1 -87 6 -139 24 -83 29 -92 30 -84 10 7 -19
3 -19 -44 5 -45 23 -59 40 -33 40 22 0 101 48 122 73 7 9 15 17 17 17 2 0 26
-21 55 -46z m-5394 20 c-3 -3 -12 -4 -19 -1 -8 3 -5 6 6 6 11 1 17 -2 13 -5z
m59 -48 c14 5 16 4 9 -4 -6 -7 -46 -14 -90 -17 -43 -3 -76 -3 -73 0 3 3 30 8
59 10 30 2 55 9 57 15 3 9 6 9 12 1 4 -7 15 -9 26 -5z m4744 -95 c30 -21 75
-49 100 -62 l45 -23 -50 -7 c-77 -11 -137 -10 -130 1 3 6 18 7 33 4 23 -6 25
-4 14 7 -7 8 -20 14 -30 14 -9 0 -17 5 -17 10 -1 16 -19 44 -30 44 -5 1 -10 4
-10 9 -1 4 -6 17 -13 28 -6 12 -8 24 -5 28 3 3 2 6 -4 6 -6 0 -14 7 -17 16 -4
12 4 8 26 -10 18 -14 58 -44 88 -65z m-4520 29 c6 -11 8 -20 6 -20 -3 0 -10 9
-16 20 -6 11 -8 20 -6 20 3 0 10 -9 16 -20z m-362 -10 c57 0 48 -10 -43 -43
-84 -32 -176 -47 -270 -46 l-70 0 80 18 c45 9 108 32 145 52 49 27 71 33 88
27 13 -4 44 -8 70 -8z m247 -25 c-16 -13 -42 -29 -57 -36 -16 -6 -28 -18 -28
-25 0 -9 -11 -14 -30 -14 -16 0 -30 2 -30 6 0 3 26 16 57 30 31 14 68 34 81
45 14 10 27 19 31 19 3 0 -7 -11 -24 -25z m5035 5 c30 -21 106 -47 176 -60 37
-7 20 -8 -66 -4 -63 2 -138 10 -165 18 -48 12 -145 51 -145 58 0 2 39 4 87 5
70 1 92 -2 113 -17z m-4870 -51 c0 -4 -4 -11 -10 -14 -5 -3 -10 0 -10 9 0 8
-3 23 -6 33 -5 16 -4 16 10 -1 9 -11 16 -23 16 -27z m1010 -4 c18 -21 3 -55
-24 -55 -33 0 -50 23 -36 49 12 24 42 27 60 6z m2371 -1 c17 -21 0 -49 -31
-49 -27 0 -46 25 -37 49 8 21 51 21 68 0z m990 -21 c13 -16 12 -17 -3 -4 -10
7 -18 15 -18 17 0 8 8 3 21 -13z m-4564 -9 c-3 -3 -12 -4 -19 -1 -8 3 -5 6 6
6 11 1 17 -2 13 -5z m283 -72 c0 -5 16 -27 36 -51 20 -23 34 -44 32 -46 -3 -3
-28 2 -57 11 -46 13 -51 18 -46 37 4 12 9 30 11 40 5 17 24 24 24 9z m4220
-42 c0 -5 -4 -10 -10 -10 -5 0 -10 5 -10 10 0 6 5 10 10 10 6 0 10 -4 10 -10z
m-2066 -134 l59 -7 -43 -44 -42 -43 11 -51 c6 -29 11 -54 11 -57 0 -3 -24 8
-52 25 l-53 30 -54 -31 c-37 -22 -53 -27 -49 -16 4 8 9 36 13 60 7 44 5 47
-36 86 l-44 40 61 7 61 7 24 56 23 57 25 -56 26 -57 59 -6z m1155 -236 c-47
-41 -192 -132 -278 -173 -101 -50 -134 -69 -142 -80 -4 -5 -15 -7 -25 -5 -15
3 -10 8 21 23 136 66 380 212 424 253 7 7 16 11 19 8 2 -3 -6 -15 -19 -26z
m-2454 -50 c3 -5 1 -10 -4 -10 -6 0 -11 5 -11 10 0 6 2 10 4 10 3 0 8 -4 11
-10z m135 -80 c0 -5 -2 -10 -4 -10 -3 0 -8 5 -11 10 -3 6 -1 10 4 10 6 0 11
-4 11 -10z m2742 -44 c12 -23 13 -37 6 -44 -8 -8 3 -34 36 -90 25 -43 46 -83
46 -89 0 -13 -59 -68 -66 -60 -3 3 -19 -10 -36 -29 -17 -19 -36 -34 -42 -34
-7 0 -25 -13 -41 -30 -15 -16 -32 -27 -36 -24 -5 2 -26 -11 -47 -31 -22 -19
-44 -35 -50 -35 -5 0 -18 20 -28 44 -17 41 -20 44 -36 30 -15 -14 -15 -20 -3
-54 13 -36 12 -39 -14 -64 -15 -14 -35 -26 -44 -26 -10 0 -36 -13 -58 -30 -23
-16 -46 -27 -51 -24 -5 3 -18 -2 -29 -12 -13 -12 -23 -14 -30 -7 -7 7 -21 -1
-45 -25 -23 -23 -38 -32 -45 -25 -9 9 -69 234 -69 260 0 14 84 66 109 68 14 1
80 40 163 97 15 10 34 18 43 18 8 0 40 19 69 43 30 23 90 68 134 100 43 32 90
69 102 82 31 33 43 31 62 -9z m-2542 -56 c0 -5 -2 -10 -4 -10 -3 0 -8 5 -11
10 -3 6 -1 10 4 10 6 0 11 -4 11 -10z m-608 -49 c18 -15 48 -36 66 -45 18 -9
42 -26 52 -36 11 -11 45 -33 77 -50 32 -16 65 -35 73 -40 44 -28 235 -118 280
-131 50 -15 58 -30 36 -64 -13 -20 -22 -23 -46 -18 -33 6 -39 -3 -13 -22 16
-12 16 -14 -1 -40 -14 -21 -23 -25 -41 -21 -13 3 -27 2 -30 -4 -3 -5 1 -10 9
-10 24 0 28 -17 11 -50 -11 -21 -21 -29 -33 -26 -9 3 -37 10 -62 16 -25 6 -49
17 -55 24 -5 6 -29 17 -52 24 -24 7 -43 19 -43 26 0 8 -15 17 -35 20 -19 4
-40 12 -47 19 -7 7 -30 22 -50 33 -109 57 -138 75 -138 84 0 6 -12 15 -26 20
-17 7 -24 15 -20 25 4 11 -2 15 -22 15 -35 0 -73 26 -66 45 4 11 -1 15 -18 15
-86 0 -89 95 -6 165 74 63 148 72 200 26z m815 -27 c-3 -3 -12 -4 -19 -1 -8 3
-5 6 6 6 11 1 17 -2 13 -5z m93 -24 c0 -5 -9 -10 -20 -10 -11 0 -20 5 -20 10
0 6 9 10 20 10 11 0 20 -4 20 -10z m95 -20 c17 -7 14 -9 -13 -9 -20 -1 -31 3
-27 9 7 12 13 12 40 0z m990 0 c4 -6 -9 -10 -32 -9 -38 1 -38 1 -8 9 17 4 31
8 32 9 1 0 5 -3 8 -9z m-85 -25 c-8 -10 -30 -15 -62 -15 -27 0 -58 -5 -68 -10
-20 -11 -216 -17 -226 -7 -3 3 25 8 63 12 37 3 106 12 153 19 47 8 100 14 119
15 29 1 32 -1 21 -14z m-798 -7 c-9 -9 -15 -9 -24 0 -9 9 -7 12 12 12 19 0 21
-3 12 -12z m301 -25 c-13 -2 -35 -2 -50 0 -16 2 -5 4 22 4 28 0 40 -2 28 -4z
m912 -285 c-4 -35 -11 -97 -14 -138 -6 -74 -6 -75 -43 -95 -20 -11 -40 -17
-43 -13 -4 3 -10 28 -13 55 l-7 48 -13 -42 c-25 -83 -106 -130 -153 -87 -16
14 -18 14 -24 -5 -7 -23 -32 -33 -90 -37 -65 -5 -98 -11 -129 -23 -18 -7 -33
-8 -38 -3 -6 6 -30 4 -61 -4 -28 -7 -55 -10 -60 -5 -4 4 -2 68 4 140 15 152 6
141 128 160 50 8 78 8 84 2 7 -7 14 -6 21 4 6 8 27 16 46 19 19 2 52 11 73 20
37 16 39 16 44 -2 4 -18 6 -18 31 5 22 20 34 24 64 20 27 -4 44 0 60 13 27 21
50 27 102 29 l39 1 -8 -62z m-1426 -2 c9 -8 41 -16 71 -19 103 -10 195 -28
211 -43 11 -10 18 -11 26 -3 17 17 239 1 255 -18 22 -27 14 -80 -15 -111 -27
-28 -27 -29 -12 -72 9 -24 13 -50 11 -57 -7 -18 -76 -29 -86 -13 -5 9 -13 9
-27 2 -12 -7 -55 -9 -112 -5 l-93 6 6 27 5 27 -37 -18 c-39 -20 -117 -26 -127
-9 -3 6 -17 10 -30 10 -13 0 -25 5 -27 12 -3 8 -23 11 -57 9 -52 -3 -53 -2
-47 22 l6 24 -45 -16 c-41 -14 -48 -14 -73 -1 -36 21 -47 55 -33 106 13 48 82
131 126 150 34 16 81 11 104 -10z"/>
<path d="M6435 6448 c-7 -21 -105 -482 -105 -495 0 -14 74 -18 127 -7 28 5 34
15 74 120 24 62 45 111 47 109 2 -2 -8 -55 -22 -119 -14 -63 -26 -118 -26
-121 0 -3 33 -5 73 -3 l72 3 34 65 c28 53 145 341 168 413 5 16 -1 18 -62 15
l-68 -3 -53 -155 c-29 -85 -53 -151 -53 -146 -1 11 48 272 55 299 5 16 0 18
-41 15 l-47 -3 -57 -142 c-31 -78 -59 -144 -62 -148 -4 -3 13 64 36 150 23 85
40 157 37 160 -12 11 -123 5 -127 -7z"/>
<path d="M5890 6424 c-111 -41 -120 -46 -120 -73 0 -14 4 -87 9 -161 6 -74 13
-184 16 -243 l7 -108 32 7 c74 16 161 86 201 163 18 35 45 183 45 246 0 48
-28 111 -63 144 -26 23 -95 37 -127 25z m60 -129 c29 -35 19 -201 -16 -283
l-16 -37 -8 30 c-5 17 -10 92 -12 168 -4 135 -3 137 18 137 12 0 27 -7 34 -15z"/>
<path d="M5639 6367 l-37 -22 24 -105 c13 -58 23 -109 21 -114 -1 -4 -31 33
-66 83 -35 50 -67 91 -71 91 -6 0 -100 -39 -107 -44 -1 -1 9 -37 22 -80 13
-43 43 -158 65 -255 23 -97 43 -182 45 -189 5 -15 23 -7 68 30 l28 23 -26 109
c-14 60 -23 111 -21 113 2 3 31 -43 63 -101 32 -58 60 -105 63 -105 3 0 17 10
33 22 l27 23 -9 124 c-8 115 -67 420 -81 420 -3 0 -21 -10 -41 -23z"/>
<path d="M6888 6267 c-33 -67 -90 -175 -125 -240 -37 -66 -61 -122 -57 -127 5
-5 31 -10 58 -11 l49 -3 50 92 c45 82 54 92 78 92 15 0 30 -4 33 -8 2 -4 -19
-51 -48 -103 -56 -99 -56 -109 0 -109 26 0 38 10 81 68 45 59 221 352 226 376
2 9 -22 18 -79 29 -31 6 -32 4 -80 -83 -37 -67 -54 -90 -69 -90 -47 0 -46 14
6 103 28 49 50 90 48 92 -2 2 -28 12 -57 23 l-53 20 -61 -121z"/>
<path d="M6315 6243 c-11 -2 -60 -7 -110 -11 l-90 -7 -13 -64 c-7 -35 -11 -66
-9 -68 4 -4 228 15 233 20 7 7 22 123 16 128 -4 3 -16 4 -27 2z"/>
<path d="M5243 6164 c-46 -36 -83 -70 -83 -76 0 -13 190 -470 200 -481 4 -4
37 20 74 55 67 63 67 63 60 106 -7 47 -21 53 -50 21 l-19 -21 -27 58 c-29 65
-30 64 31 104 21 15 22 16 6 53 -8 20 -18 37 -21 37 -3 0 -22 -11 -42 -25
l-37 -26 -22 48 c-12 26 -22 54 -22 60 -1 7 17 25 39 39 22 15 40 29 40 32 0
21 -25 82 -34 81 -6 0 -48 -29 -93 -65z"/>
<path d="M7250 6193 c-14 -21 -81 -112 -149 -203 -68 -91 -125 -169 -127 -175
-2 -5 21 -18 52 -28 66 -21 64 -22 115 79 17 34 58 92 93 130 90 100 160 194
150 203 -12 11 -73 31 -93 31 -9 0 -27 -17 -41 -37z"/>
<path d="M5362 6102 c-33 -27 -39 -46 -23 -71 9 -13 21 -8 79 35 6 4 -9 64
-16 64 -4 0 -22 -13 -40 -28z"/>
<path d="M7423 6081 c-99 -34 -204 -128 -248 -224 -40 -84 -29 -143 30 -172
62 -29 105 -20 178 37 l37 30 -21 29 c-19 27 -21 28 -44 13 -27 -17 -66 -16
-72 3 -7 19 86 112 142 144 50 29 95 38 95 19 0 -11 37 -28 81 -37 20 -4 27 1
37 22 29 63 0 126 -66 145 -52 14 -89 12 -149 -9z"/>
<path d="M4996 5996 c-94 -88 -105 -266 -19 -305 13 -6 62 -11 108 -11 46 0
90 -3 99 -6 17 -6 21 -40 8 -61 -10 -15 -57 -33 -89 -33 -19 0 -24 -4 -19 -16
4 -9 11 -36 17 -60 11 -43 13 -44 51 -44 49 0 90 21 122 63 49 64 50 79 10
175 -19 48 -42 94 -50 102 -10 10 -44 16 -107 20 l-92 5 -3 36 c-4 44 19 58
48 29 19 -19 19 -19 38 8 43 61 44 68 16 101 -37 45 -89 43 -138 -3z"/>
<path d="M7655 5894 c-44 -37 -136 -110 -205 -162 -69 -52 -129 -99 -134 -103
-4 -4 16 -21 45 -38 l53 -30 82 65 c45 35 86 64 89 64 4 0 17 -8 30 -18 l23
-19 -91 -68 -91 -68 29 -23 c67 -53 59 -56 204 60 72 59 165 130 207 159 l75
52 -33 28 c-60 52 -59 52 -143 -13 -43 -33 -81 -60 -85 -60 -4 0 -18 8 -30 18
l-23 19 82 57 c44 32 81 61 81 65 0 8 -73 81 -81 81 -2 0 -41 -30 -84 -66z"/>
<path d="M5158 5903 l-26 -40 44 -10 c50 -12 52 -9 25 51 l-17 38 -26 -39z"/>
<path d="M7422 5900 c-74 -48 -129 -108 -61 -67 18 11 24 8 55 -27 l33 -39 71
57 c64 52 79 76 47 76 -7 0 -30 9 -50 19 l-37 19 -58 -38z"/>
<path d="M5432 5894 c-26 -18 -27 -24 -8 -49 12 -16 16 -17 30 -6 17 14 22 56
8 65 -5 3 -18 -2 -30 -10z"/>
<path d="M6337 5603 c-9 -8 -9 -98 -1 -106 17 -16 94 66 94 100 0 14 -81 19
-93 6z"/>
<path d="M6580 5597 c0 -9 12 -24 26 -34 15 -10 36 -28 49 -40 26 -27 35 -21
35 22 0 40 -17 55 -70 62 -32 5 -40 3 -40 -10z"/>
<path d="M6079 5573 c-1 -5 -1 -31 1 -59 1 -42 -3 -56 -24 -81 -14 -17 -26
-34 -26 -37 0 -16 41 -3 69 23 27 25 31 36 31 78 0 36 -5 55 -18 66 -20 18
-31 21 -33 10z"/>
<path d="M5828 5553 c-27 -17 -43 -49 -28 -58 16 -10 68 17 79 41 6 14 11 27
11 29 0 11 -37 3 -62 -12z"/>
<path d="M5481 5383 c-23 -15 -23 -17 -6 -30 41 -29 142 0 114 33 -16 19 -79
18 -108 -3z"/>
<path d="M5645 5390 c-3 -5 1 -10 10 -10 9 0 13 5 10 10 -3 6 -8 10 -10 10 -2
0 -7 -4 -10 -10z"/>
<path d="M5525 5140 c3 -5 8 -10 11 -10 2 0 4 5 4 10 0 6 -5 10 -11 10 -5 0
-7 -4 -4 -10z"/>
<path d="M11110 5450 c-13 -9 -13 -10 0 -10 8 0 22 5 30 10 13 9 13 10 0 10
-8 0 -22 -5 -30 -10z"/>
<path d="M9198 5373 c7 -3 16 -2 19 1 4 3 -2 6 -13 5 -11 0 -14 -3 -6 -6z"/>
<path d="M11120 5371 c0 -18 18 -21 30 -6 10 13 9 15 -9 15 -11 0 -21 -4 -21
-9z"/>
<path d="M9540 5359 c0 -7 35 -19 58 -19 7 0 11 4 8 9 -7 11 -66 20 -66 10z"/>
<path d="M10900 5366 c0 -15 54 -118 57 -109 4 11 -43 113 -52 113 -3 0 -5 -2
-5 -4z"/>
<path d="M9164 5298 c18 -10 232 -5 244 7 3 3 -55 5 -129 5 -102 -1 -129 -3
-115 -12z"/>
<path d="M10670 5190 c0 -5 5 -10 10 -10 6 0 10 5 10 10 0 6 -4 10 -10 10 -5
0 -10 -4 -10 -10z"/>
<path d="M11011 4986 c-9 -11 -9 -16 1 -22 7 -4 10 -4 6 1 -4 4 -3 14 3 22 6
7 9 13 6 13 -2 0 -10 -6 -16 -14z"/>
<path d="M2480 5414 c-85 -8 -175 -20 -200 -29 l-45 -15 65 5 c131 9 276 26
330 39 68 17 46 17 -150 0z"/>
<path d="M3010 5366 c0 -9 5 -16 10 -16 6 0 10 4 10 9 0 6 -4 13 -10 16 -5 3
-10 -1 -10 -9z"/>
<path d="M2380 5199 c-20 -6 -17 -7 18 -8 23 -1 42 1 42 3 0 9 -37 12 -60 5z"/>
<path d="M1807 4960 c-3 -11 -1 -23 5 -26 6 -4 5 -10 -3 -16 -11 -7 -9 -8 6
-6 25 4 36 68 12 68 -8 0 -17 -9 -20 -20z"/>
<path d="M10680 4513 l-22 -38 31 29 c31 30 39 46 22 46 -5 0 -19 -17 -31 -37z"/>
<path d="M9350 4536 c0 -2 13 -6 29 -8 17 -2 28 -1 25 4 -5 8 -54 12 -54 4z"/>
<path d="M10605 4490 c10 -11 20 -20 23 -20 3 0 -3 9 -13 20 -10 11 -20 20
-23 20 -3 0 3 -9 13 -20z"/>
<path d="M2261 4651 c-8 -5 -9 -11 -3 -15 5 -3 15 1 22 9 14 16 3 20 -19 6z"/>
<path d="M5470 4627 c0 -35 24 -127 33 -127 6 0 29 -8 51 -19 23 -10 49 -21
59 -24 9 -4 17 -16 17 -27 0 -11 7 -20 15 -20 31 0 15 38 -24 58 -21 11 -41
19 -43 16 -12 -11 -49 47 -61 96 -9 35 -20 56 -31 58 -9 2 -16 -3 -16 -11z"/>
<path d="M3150 4123 c-52 -20 -135 -49 -185 -64 l-90 -29 65 6 c84 8 200 45
275 89 76 44 55 44 -65 -2z"/>
<path d="M6001 4556 c-8 -10 -8 -16 3 -25 11 -9 15 -8 20 4 3 8 1 15 -5 15 -6
0 -7 5 -4 10 9 15 -1 12 -14 -4z"/>
<path d="M5940 4550 c-13 -8 -12 -10 3 -10 9 0 17 5 17 10 0 12 -1 12 -20 0z"/>
<path d="M9500 4163 c0 -5 41 -23 90 -41 168 -61 346 -103 433 -101 46 1 41 3
-48 18 -55 10 -170 41 -256 68 -177 58 -219 68 -219 56z"/>
<path d="M6035 3990 l-20 -22 35 4 c23 2 35 8 35 18 0 23 -29 23 -50 0z"/>
<path d="M5980 3941 c0 -5 -3 -16 -6 -24 -4 -12 0 -14 15 -10 24 6 28 28 6 37
-8 3 -15 1 -15 -3z"/>
<path d="M5910 3926 c-10 -13 -9 -17 4 -22 22 -8 49 3 44 19 -7 18 -33 20 -48
3z"/>
<path d="M8948 4169 c16 -17 16 -31 -1 -27 -7 2 -13 -1 -13 -7 -1 -5 7 -9 17
-7 14 2 17 -1 13 -12 -4 -10 1 -18 11 -22 9 -4 14 -12 11 -19 -3 -9 2 -11 15
-8 19 5 19 6 2 20 -17 13 -16 14 5 8 33 -9 29 29 -5 53 -36 25 -73 39 -55 21z
m50 -51 c-7 -19 -21 -12 -23 9 -1 18 1 20 12 11 8 -6 12 -15 11 -20z"/>
<path d="M8860 4139 c0 -5 5 -7 10 -4 6 3 10 8 10 11 0 2 -4 4 -10 4 -5 0 -10
-5 -10 -11z"/>
<path d="M8840 4118 c0 -5 5 -6 10 -3 6 3 10 -1 10 -10 0 -10 -5 -13 -12 -9
-6 4 -8 3 -5 -4 4 -5 15 -9 25 -7 9 2 19 4 22 4 3 1 -2 6 -10 11 -10 6 -11 10
-2 10 6 0 12 4 12 9 0 5 -11 9 -25 9 -14 0 -25 -5 -25 -10z"/>
<path d="M8910 4110 c0 -5 7 -10 16 -10 8 0 12 5 9 10 -3 6 -10 10 -16 10 -5
0 -9 -4 -9 -10z"/>
<path d="M9001 4036 c-11 -14 -5 -46 9 -46 15 0 32 30 26 45 -7 19 -20 19 -35
1z"/>
<path d="M3497 3972 c-43 -44 -59 -72 -39 -72 14 0 80 74 87 98 3 12 5 22 3
22 -2 0 -25 -22 -51 -48z"/>
<path d="M10250 3703 c-40 -10 -97 -13 -205 -10 -140 3 -147 3 -100 -10 55
-15 97 -20 163 -22 24 -1 41 -5 38 -10 -7 -11 41 -3 79 14 130 56 137 68 25
38z"/>
<path d="M3827 3863 c-4 -3 -7 -11 -7 -17 0 -6 5 -5 12 2 6 6 9 14 7 17 -3 3
-9 2 -12 -2z"/>
<path d="M7981 2618 c-34 -33 -42 -45 -34 -57 6 -9 19 -15 30 -13 15 2 29 -16
62 -80 24 -46 46 -85 48 -87 5 -6 43 31 43 42 0 6 -21 46 -46 89 -35 62 -43
82 -34 93 12 14 -2 55 -18 55 -4 0 -27 -19 -51 -42z"/>
<path d="M7879 2537 l-37 -32 39 -110 c22 -60 42 -116 44 -124 4 -11 11 -9 30
9 19 18 22 27 14 47 -5 13 -9 26 -9 29 0 7 30 4 30 -3 0 -5 4 -15 10 -23 7
-12 12 -12 29 4 12 11 21 23 21 28 0 8 -112 182 -129 200 -3 3 -22 -8 -42 -25z
m73 -141 c-3 -6 -13 8 -23 30 -25 56 -23 65 5 19 13 -22 22 -44 18 -49z"/>
<path d="M7970 2525 c0 -3 20 -36 45 -73 25 -37 45 -63 45 -59 0 16 -72 137
-81 137 -5 0 -9 -2 -9 -5z"/>
<path d="M7782 2469 c-23 -17 -42 -35 -42 -40 0 -17 92 -229 99 -229 4 0 22
15 39 33 22 22 30 39 26 50 -7 20 -16 21 -31 6 -7 -7 -14 -2 -21 21 -9 25 -9
32 3 37 17 6 20 39 6 48 -5 3 -12 1 -16 -5 -10 -17 -25 -11 -35 13 -6 17 -4
26 11 39 14 12 17 22 11 37 -7 21 -8 21 -50 -10z"/>
<path d="M7830 2430 c-12 -7 -12 -12 -3 -21 10 -10 14 -9 19 5 8 22 2 27 -16
16z"/>
<path d="M7685 2410 c-11 -4 -28 -17 -38 -28 -17 -19 -17 -23 19 -128 20 -60
40 -113 44 -117 4 -4 17 0 29 10 20 16 21 21 10 52 -10 28 -9 38 5 61 21 36
20 41 -5 100 -23 53 -34 61 -64 50z m31 -64 c3 -8 4 -25 2 -38 -2 -19 -5 -17
-15 15 -10 35 1 55 13 23z"/>
<path d="M7563 2337 c-18 -12 -33 -24 -33 -27 0 -3 17 -58 38 -123 l37 -119
43 31 c44 33 47 38 33 60 -8 12 -12 12 -25 2 -13 -11 -16 -9 -22 15 -5 20 -2
30 10 39 22 17 10 47 -18 43 -16 -2 -22 3 -24 21 -2 13 1 28 7 34 15 15 14 47
-1 46 -7 0 -28 -10 -45 -22z"/>
<path d="M7865 2331 c-6 -11 9 -23 19 -14 9 9 7 23 -3 23 -6 0 -12 -4 -16 -9z"/>
<path d="M7453 2284 c-61 -31 -62 -36 -28 -167 l30 -117 24 16 c19 14 22 22
16 51 -3 19 -9 42 -13 51 -4 13 47 -41 65 -67 1 -2 9 2 18 9 23 19 18 46 -16
74 -28 24 -30 28 -19 59 10 26 9 39 -3 70 -18 41 -27 44 -74 21z m47 -51 c-1
-5 -7 -19 -14 -32 -14 -24 -14 -24 -20 -3 -4 12 -4 26 -1 32 7 12 35 14 35 3z"/>
<path d="M7610 2290 c0 -5 7 -10 15 -10 8 0 15 5 15 10 0 6 -7 10 -15 10 -8 0
-15 -4 -15 -10z"/>
<path d="M7645 2201 c-6 -11 9 -23 19 -14 9 9 7 23 -3 23 -6 0 -12 -4 -16 -9z"/>
<path d="M7540 2171 c0 -5 5 -13 10 -16 6 -3 10 -2 10 4 0 5 -4 13 -10 16 -5
3 -10 2 -10 -4z"/>
<path d="M4810 2550 c-48 -14 -89 -40 -113 -72 -37 -50 -41 -74 -18 -97 23
-23 46 -26 86 -11 32 12 31 45 -2 45 -35 1 -36 11 -3 39 39 32 75 42 95 26 13
-10 19 -9 35 5 11 10 20 24 20 30 0 28 -57 48 -100 35z"/>
<path d="M4837 2412 l-88 -88 27 -13 c25 -11 30 -9 61 20 38 37 39 36 17 -16
-17 -40 -9 -59 21 -53 20 3 31 21 39 59 4 19 14 29 33 34 31 7 83 52 83 71 0
15 -55 59 -85 68 -16 5 -39 -13 -108 -82z m133 -3 c0 -5 -14 -9 -32 -9 -30 0
-31 0 -13 20 14 15 21 17 32 9 7 -6 13 -15 13 -20z"/>
<path d="M4794 2458 c-22 -10 -22 -10 -2 -30 20 -20 20 -20 44 3 37 34 9 52
-42 27z"/>
<path d="M4975 2331 c-44 -49 -81 -93 -82 -98 -2 -4 16 -16 39 -26 38 -16 44
-16 58 -2 13 14 13 17 0 25 -22 14 16 52 45 44 13 -3 26 1 34 10 10 12 8 16
-9 21 l-22 7 23 24 c17 18 26 21 41 13 19 -10 48 2 48 20 0 6 -83 51 -93 51
-1 0 -38 -40 -82 -89z"/>
<path d="M5075 2264 c-84 -81 -88 -87 -70 -100 24 -18 39 -18 55 1 12 14 40
21 40 10 0 -3 -7 -16 -15 -29 -15 -23 -15 -24 14 -34 l29 -10 65 108 65 108
-42 16 c-23 9 -44 16 -46 16 -3 -1 -45 -39 -95 -86z m79 -14 c-24 -36 -44 -51
-44 -33 0 7 61 73 67 73 2 0 -9 -18 -23 -40z"/>
<path d="M4930 2324 c0 -8 5 -12 10 -9 6 3 10 10 10 16 0 5 -4 9 -10 9 -5 0
-10 -7 -10 -16z"/>
<path d="M5075 2330 c-8 -13 15 -24 27 -12 6 6 4 11 -6 15 -8 3 -18 2 -21 -3z"/>
<path d="M5259 2278 c-8 -15 -8 -22 1 -28 15 -9 13 -14 -53 -103 -40 -55 -47
-71 -36 -78 29 -19 54 -3 103 67 27 39 59 75 70 80 38 17 30 38 -24 61 l-50
21 -11 -20z"/>
<path d="M5005 2250 c-3 -5 1 -10 9 -10 9 0 16 5 16 10 0 6 -4 10 -9 10 -6 0
-13 -4 -16 -10z"/>
<path d="M5224 2228 c-4 -7 -23 -37 -41 -65 -19 -29 -32 -53 -30 -53 5 0 76
94 91 118 4 6 3 12 -3 12 -5 0 -13 -6 -17 -12z"/>
<path d="M5320 2141 c-36 -55 -64 -103 -63 -108 1 -4 23 -13 50 -20 41 -10 50
-10 63 3 13 13 13 16 0 24 -8 5 -19 11 -24 13 -5 2 -2 13 5 25 11 17 20 21 38
17 15 -4 27 -1 32 7 13 20 11 25 -12 31 -20 5 -20 7 -4 31 14 21 20 24 37 15
14 -7 23 -7 34 2 21 17 17 28 -13 40 -73 28 -73 28 -143 -80z"/>
<path d="M7170 2141 c0 -41 -17 -48 -25 -11 -8 35 -15 37 -41 9 -18 -20 -18
-22 9 -97 15 -42 27 -92 27 -109 0 -37 0 -37 35 -21 21 10 25 18 26 57 0 25 6
81 13 124 l12 77 -28 0 c-24 0 -28 -4 -28 -29z"/>
<path d="M6996 2119 c-36 -28 -54 -67 -62 -131 -13 -111 47 -167 113 -106 55
51 66 155 23 226 -23 37 -38 40 -74 11z m54 -120 c0 -41 -30 -87 -48 -75 -21
13 -14 94 9 117 26 26 39 12 39 -42z"/>
<path d="M7005 1994 c-7 -38 10 -72 20 -41 3 9 7 24 10 32 5 18 -4 45 -15 45
-4 0 -11 -16 -15 -36z"/>
<path d="M6898 2107 c-28 -11 -28 -11 -28 -109 0 -77 -3 -98 -14 -98 -15 0
-30 -45 -21 -60 10 -16 51 -11 67 8 11 12 17 52 21 145 4 70 6 127 4 126 -1
-1 -14 -6 -29 -12z"/>
<path d="M6803 2083 c-8 -3 -13 -27 -14 -66 l-1 -62 -20 58 c-18 53 -22 58
-47 55 l-26 -3 -8 -129 c-4 -71 -6 -131 -4 -132 2 -2 13 -1 25 3 17 4 23 15
29 57 l7 51 11 -44 c12 -49 25 -59 48 -37 15 15 21 47 33 184 6 74 3 80 -33
65z"/>
<path d="M6609 2053 c-29 -5 -32 -14 -45 -181 l-7 -83 29 7 c75 19 79 21 82
43 3 21 1 23 -23 17 -25 -6 -27 -5 -21 16 3 13 6 26 6 31 0 4 9 7 20 7 15 0
20 7 20 26 0 21 -4 25 -20 21 -32 -8 -27 41 5 53 15 6 25 17 25 30 0 21 -10
22 -71 13z"/>
<path d="M6650 1985 c0 -8 5 -15 10 -15 6 0 10 7 10 15 0 8 -4 15 -10 15 -5 0
-10 -7 -10 -15z"/>
<path d="M6645 1889 c-4 -6 -5 -13 -2 -16 7 -7 27 6 27 18 0 12 -17 12 -25 -2z"/>
<path d="M5689 2107 c-80 -53 -129 -180 -80 -207 55 -29 123 8 163 90 38 79
43 104 23 124 -23 23 -66 20 -106 -7z m59 -68 c5 -27 -42 -84 -71 -87 -40 -5
-36 31 8 75 35 35 58 39 63 12z"/>
<path d="M5691 2014 c-12 -15 -21 -33 -21 -40 0 -19 26 -7 44 21 31 48 12 63
-23 19z"/>
<path d="M5793 1998 c-23 -56 -45 -111 -49 -120 -5 -15 -1 -18 23 -18 25 0 32
6 50 48 l21 47 1 -52 c1 -49 3 -53 25 -53 30 0 35 14 27 65 -6 36 -4 42 20 57
15 9 32 33 39 53 16 48 3 62 -65 70 l-50 7 -42 -104z m117 32 c0 -10 -39 -34
-46 -27 -3 2 -2 12 2 21 7 17 44 23 44 6z"/>
<path d="M5975 2058 c-33 -88 -73 -223 -69 -229 16 -27 121 12 148 54 8 12 23
51 32 86 l18 64 -23 18 c-27 22 -99 26 -106 7z m70 -58 c8 -12 -31 -94 -56
-116 -19 -17 -19 -13 5 50 14 38 26 70 26 72 0 8 19 4 25 -6z"/>
<path d="M6091 1930 c-19 -66 -33 -121 -30 -123 2 -2 27 -1 56 1 40 3 52 8 56
23 4 15 0 19 -19 19 -27 0 -27 0 -14 34 6 16 17 26 29 26 10 0 22 7 25 16 9
23 8 24 -14 24 -22 0 -23 3 -14 38 4 15 14 22 30 22 17 0 24 6 24 20 0 17 -7
20 -47 20 l-48 0 -34 -120z"/>
<path d="M6255 2043 c-17 -3 -24 -22 -43 -106 -12 -56 -25 -112 -28 -125 -6
-21 -4 -22 22 -16 33 8 44 20 44 51 0 39 18 34 25 -7 6 -34 10 -40 31 -40 33
0 38 18 19 64 -16 37 -16 38 15 72 35 41 40 88 11 104 -19 10 -56 11 -96 3z
m60 -73 c-10 -11 -22 -20 -27 -20 -4 0 -8 9 -8 20 0 15 7 20 27 20 25 0 26 0
8 -20z"/>
<path d="M6180 1980 c0 -5 7 -10 15 -10 8 0 15 5 15 10 0 6 -7 10 -15 10 -8 0
-15 -4 -15 -10z"/>
<path d="M5906 1951 c-4 -7 -5 -15 -2 -18 9 -9 19 4 14 18 -4 11 -6 11 -12 0z"/>
<path d="M6160 1880 c0 -5 5 -10 10 -10 6 0 10 5 10 10 0 6 -4 10 -10 10 -5 0
-10 -4 -10 -10z"/>
</g>
</svg>
